<svg xmlns="http://www.w3.org/2000/svg" viewBox="0 0 150 150" xmlns:v="https://vecta.io/nano"><path d="M52.7 29.9v-2.7c.2-6.9 5.8-12.6 12.7-12.8 6.4-.1 12.8-.1 19.2 0 6.9.2 12.5 5.9 12.7 12.8v2.6h2.2 43.1c5 0 7.4 2.4 7.4 7.4v90.1c0 5.1-2.4 7.5-7.5 7.5H7.5c-5.1 0-7.5-2.4-7.5-7.5v-90c0-5 2.4-7.4 7.4-7.4h43 2.3zm29.9 53.5h24.3c16.5-.4 30.8-11.7 33.4-26.4.8-5 .6-10.1.7-15.2.1-2.7-.1-2.8-3.1-2.8H59.2 11.4c-2.3 0-2.5.3-2.5 2.3v9.9C8.8 69 24.5 83.5 44.2 83.5h21.1c.6 0 1.1-.1 1.8-.1v-3.7c.2-3.9 3.5-6.8 7.6-6.9 4.2 0 7.6 2.9 7.7 6.9.2 1.1.2 2.3.2 3.7zM8.7 72.3v1.5 49.9c0 2.3.3 2.6 2.8 2.6h126.6c2.4 0 2.7-.3 2.7-2.5V73.7v-1.9c-.5.6-.7.9-.8 1.1-8.1 12.4-19.8 18.8-35.3 18.9-6.8.1-13.5 0-20.3 0h-2.1v4c0 1.1.1 2.4-.2 3.5-.8 3.5-4.4 6-8.1 5.6-4-.4-7-3.3-7.1-7-.1-2 0-4.1 0-6.3h-2.2-20.6c-10 0-18.6-3-26.3-9-3.3-2.8-6.4-6.3-9.1-10.3zm51.9-42.6h29.1c1-5.6-2.2-10.6-7-10.7-5-.1-10.2-.1-15.2 0-4.7.2-7.8 5-6.9 10.7zM71.5 89h0v6.5c0 2.2 1.5 3.6 3.6 3.6s3.4-1.4 3.4-3.5V82.4c0-2.2-1.5-3.6-3.6-3.6-2 0-3.4 1.4-3.4 3.5V89z"/></svg>