<?xml version="1.0" encoding="utf-8"?>
<!-- Generator: Adobe Illustrator 26.0.1, SVG Export Plug-In . SVG Version: 6.00 Build 0)  -->
<svg version="1.1" id="Layer_1" xmlns="http://www.w3.org/2000/svg" xmlns:xlink="http://www.w3.org/1999/xlink" x="0px" y="0px"
	 viewBox="0 0 150 150" style="enable-background:new 0 0 150 150;" 
	 xml:space="preserve">
<g>
	<path d="M52.7,31.6c0-1.1,0-1.9,0-2.7c0.2-6.9,5.8-12.6,12.7-12.8c6.4-0.1,12.8-0.1,19.2,0c6.9,0.2,12.5,5.9,12.7,12.8
		c0,0.8,0,1.6,0,2.6c0.8,0,1.5,0,2.2,0c14.4,0,28.8,0,43.1,0c5,0,7.4,2.4,7.4,7.4c0,30,0,60.1,0,90.1c0,5.1-2.4,7.5-7.5,7.5
		c-45,0-90,0-135,0c-5.1,0-7.5-2.4-7.5-7.5C0,99,0,69,0,39c0-5,2.4-7.4,7.4-7.4c14.3,0,28.7,0,43,0C51.1,31.6,51.7,31.6,52.7,31.6z
		 M83.2,88.2c8.8,0,17.3,0.2,25.8,0c17.5-0.5,32.7-13.6,35.5-30.8c0.9-5.8,0.6-11.8,0.7-17.7c0.1-3.2-0.1-3.3-3.3-3.3
		c-27.9,0-55.8,0-83.7,0c-16.9,0-33.8,0-50.8,0c-2.4,0-2.7,0.3-2.7,2.7c0,3.9,0,7.7,0,11.6c0.1,20.8,16.8,37.6,37.7,37.7
		c7.5,0,15,0,22.4,0c0.6,0,1.2-0.1,1.9-0.1c0-1.6,0-2.9,0-4.3c0.2-4.5,3.7-7.9,8.1-8c4.5,0,8.1,3.4,8.2,8
		C83.2,85.2,83.2,86.6,83.2,88.2z M4.7,70.7c0,0.6,0,1.1,0,1.7c0,18.9,0,37.7,0,56.6c0,2.6,0.3,2.9,3,2.9c44.9,0,89.7,0,134.6,0
		c2.6,0,2.9-0.3,2.9-2.8c0-18.9,0-37.9,0-56.8c0-0.5,0-1.1,0-2.1c-0.5,0.7-0.7,1-0.8,1.2c-8.6,14.1-21,21.3-37.5,21.4
		c-7.2,0.1-14.4,0-21.6,0c-0.7,0-1.3,0-2.2,0c0,1.7,0,3.1,0,4.5c0,1.3,0.1,2.7-0.2,4c-0.8,4-4.7,6.8-8.6,6.4
		c-4.2-0.4-7.4-3.7-7.5-7.9c-0.1-2.3,0-4.6,0-7.1c-0.9,0-1.6,0-2.3,0c-7.3,0-14.6,0-21.9,0c-10.6,0-19.8-3.4-27.9-10.2
		C10.8,79.2,7.6,75.2,4.7,70.7z M57.7,31.4c11.5,0,23.1,0,34.7,0c1.2-5.6-2.6-10.6-8.3-10.7c-6-0.1-12.1-0.1-18.1,0
		C60.3,20.9,56.6,25.7,57.7,31.4z M71.5,91.9C71.5,91.9,71.5,91.9,71.5,91.9c0,2.4,0,4.8,0,7.2c0,2.4,1.5,4,3.6,4
		c2.1,0,3.4-1.6,3.4-3.9c0-4.9,0-9.8,0-14.7c0-2.4-1.5-4-3.6-4c-2,0-3.4,1.6-3.4,3.9C71.5,86.9,71.5,89.4,71.5,91.9z"/>
</g>
</svg>
