<svg xmlns="http://www.w3.org/2000/svg" viewBox="0 0 800 800" xmlns:v="https://vecta.io/nano"><path d="M35 400h202.8M35 400c0 201.6 163.4 365 365 365M35 400C35 198.4 198.4 35 400 35M237.8 400h324.4m-324.4 0c0 201.6 72.6 365 162.2 365M237.8 400c0-201.6 72.6-365 162.2-365m162.2 365H765m-202.8 0c0-201.6-72.6-365-162.2-365m162.2 365c0 201.6-72.6 365-162.2 365m365-365c0-201.6-163.4-365-365-365m365 365c0 201.6-163.4 365-365 365" fill="none" stroke="#000" stroke-width="66.667" stroke-linecap="round" stroke-linejoin="round" stroke-miterlimit="133.3333"/></svg>