<svg xmlns="http://www.w3.org/2000/svg" viewBox="0 0 800 800" xmlns:v="https://vecta.io/nano"><path d="M661.8 656.9c-5.5 6.3-10.4 13.3-16.8 18.6-22.1 18.6-49 18.4-70.9-.4L331.5 466.6 288 429.5c-1.8-1.5-4.8-2.3-7.2-2.2-20.9.7-41.6-.3-62.1-5.1-26.8-6.3-51.5-17.3-74.1-33-26.9-18.7-48.4-42.4-64.4-71-13.7-24.5-22.4-50.7-25.6-78.7-5.1-45 2.4-87.9 24.4-127.4 32.5-58.1 81.5-95 147.1-107.7 61.1-11.9 117.6 1.1 167.7 38.2 44.2 32.7 71.8 76.5 82.4 130.5 3 15.1 2.7 30.7 4.2 46.1.2 2.1 1 4.6 2.3 6.2l183.9 231.7 57.1 72c18.3 23.5 16.5 51.6-4.3 72.9-1.9 1.9-4.1 3.4-5.2 4.4 8.2 10.4 16.9 19.2 22.9 29.7 21.1 36.5 19.9 73.3-3 108.4-21.3 32.8-53.3 48.6-91.3 53.6-30.2 3.9-58.4-3.7-85.5-15.8-20.9-9.4-41.2-20.2-61.7-30.6-21.2-10.8-41.9-22.9-65.1-29.4-26.8-7.4-51.8-2.3-75.5 11.1-15.1 8.5-27.4 20.3-38.3 33.6-6.8 8.2-13.9 15.5-25.2 17.6-13.5 2.6-27.4-2.5-35.6-14-8.4-11.7-9.4-27-1.6-38.7 11.6-17.5 26.4-32.2 42.7-45.3 25-20 53.3-32.1 85-37.1 37.1-5.9 71.6 2.3 104.5 18.2 28.9 13.9 57.1 29.1 85.7 43.5 14.3 7.2 29.1 13.4 45.2 15.8 20.2 3 38.3-1.7 53-16.3 13.3-13.2 13.2-31.9.1-45.3-2.2-2.3-4.7-4.3-7.1-6.4-.5-.8-1.1-1.5-1.6-2.1zM125 213.9c.4 78.6 63.9 142 142.1 141.7 77.8-.3 142-62.4 141.6-142.2C408.2 133 344.9 72 266.8 72 185.5 72 125 137.6 125 213.9zM658.4 561L458.1 309c-20.7 41.3-51.7 71.7-91.5 93.9l241.9 207.9 49.9-49.8zm-152-74.8c-12.6 0-21-3.5-27.8-10.3L428 425.3c-14-14.3-13.7-36.5.4-50.4 13.8-13.6 35.9-13.7 50 .2l50.6 50.6c10.5 10.6 13.3 25.8 7.4 39-6.4 13.9-17.6 21-30 21.5z"/></svg>