<svg xmlns="http://www.w3.org/2000/svg" viewBox="0 0 800 800" xmlns:v="https://vecta.io/nano"><path d="M3.5 399.5C2.3 176.6 183.4.7 400.5.4 622.1.2 807.3 184.9 798.2 416.5c-8.5 215.4-184.6 385.9-399.8 383-231.9-3.3-397.1-191.4-394.9-400zm508.4 338.4l-47.6-33.1c-6.6-4.4-7.7-8.6-5-16.1l46.3-130.9c2.9-8.1 6.9-10.4 15-10.4l133.3-.1c9.1-.1 12.7 3.4 15.4 11.6 5.4 17.7 11.6 35.2 18.4 55.1 44.9-66.8 68.5-137.4 70.8-218.8l-48 35.7c-5.8 4.5-10 4.6-15.9.1l-109.4-82.3c-6.9-5.2-8.8-9.7-6-18.3l38-124.8c3.6-12.7 9.5-16.6 22.1-15.7 16.8 1.1 33.7.2 53.9.2C643.4 124.6 582.7 81.3 505.9 55c6.7 20.2 12 37.6 18.5 54.5 3.5 9.1.9 13.9-6.4 19.1l-110.3 79c-6.9 5-11.4 4.5-18-.3l-107.4-76.7c-10.3-7.1-12.2-13.6-7.4-24.9 6.4-14.9 10.6-30.7 16.6-48.4-75.6 26.4-136 68.3-184 132.8l54.9-.1c8.2-.2 12.4 2.3 14.8 10.5L217 330.9c2.5 8.2.9 12.4-5.6 17.2l-107.8 82.5c-5.7 4.5-10 4.8-16 .3-14.9-11-30.4-21.3-46.3-32.4-6.8 53.8 26.6 171.6 67.7 213.1l17.7-53.3c2.5-8.6 6.8-11.3 15.6-11.2h134.5c8.7-.1 12.8 2.5 15.7 11.1l43.8 129.3c3.1 8.6 1.3 13.3-6 18-15.3 9.9-29.8 20.6-46.9 32.5 77.1 25.2 151.4 26.5 228.5-.1z"/><path d="M512 738.2c-77.2 26.6-151.6 25.3-228.8.1 16.9-11.9 31.6-22.6 46.9-32.5 7.4-4.8 9.1-9.4 6-18l-43.8-129.4c-2.9-8.6-7-11.1-15.7-11.1H142c-8.8-.1-13.2 2.7-15.6 11.2-5.3 17.8-11.6 35.4-17.7 53.4C67.5 570.4 34.2 452.5 41 398.7c15.9 11.1 31.4 21.3 46.3 32.4 6 4.5 10.3 4.2 16-.3l107.8-82.6c6.5-4.9 8.3-9.1 5.6-17.2l-39.9-130.5c-2.4-8.2-6.6-10.8-14.8-10.5-17 .5-34.3.1-54.9.1 48.1-64.6 108.6-106.4 184.2-132.9-5.9 17.7-10.2 33.5-16.6 48.4-4.8 11.3-3 17.8 7.4 24.9 36.2 25 71.9 50.8 107.5 76.8 6.6 4.8 11.2 5.4 18 .3L518 128.5c7.4-5.2 10-10 6.4-19.1-6.5-16.9-11.8-34.5-18.6-54.6C582.7 81.1 643.3 124.4 693 190c-20.2 0-37.1.8-53.9-.2-12.5-.8-18.6 3-22.1 15.7-11.8 41.8-24.8 83.4-38 124.9-2.9 8.7-1 13.2 6 18.3l109.5 82.4c5.9 4.6 10.2 4.5 15.9-.1 14.7-11.4 30-22.3 48-35.7-2.2 81.5-25.9 152.1-70.8 219-6.7-19.9-13.2-37.3-18.4-55.1-2.4-8.3-6.3-11.6-15.4-11.6l-133.4.1c-8.1 0-12.2 2.2-15 10.4l-46.3 131c-2.7 7.5-1.5 11.8 5.1 16.1 15.7 10.2 30.8 21.2 47.8 33zM397.5 491.1l62.4.1c7 .1 10.9-2.5 13.2-9.1l40.7-118.6c1-3.2-1-9.5-3.7-11.5l-105.7-74.1c-2.5-1.7-8.1-1.7-10.5-.1L289 350.7c-5.9 4.1-6.9 7.9-4.6 14.8L322.8 481c2.6 7.8 6.7 10.2 14.7 10l60 .1z" fill="#fff"/><path d="M397.5 491.1c-20 0-40.1-.3-60.2.2-7.9.2-12.2-2.2-14.7-10l-38.4-115.5c-2.3-6.8-1.3-10.6 4.6-14.8l104.9-72.9c2.5-1.6 8.1-1.6 10.5.1l105.7 74.1c2.8 1.9 4.8 8.3 3.7 11.5l-40.7 118.6c-2.2 6.6-6 9.2-13.2 9.1-20.6-.6-41.3-.4-62.2-.4z"/></svg>