<?xml version="1.0" encoding="utf-8"?>
<!-- Generator: Adobe Illustrator 26.0.1, SVG Export Plug-In . SVG Version: 6.00 Build 0)  -->
<svg version="1.1" id="Layer_1" xmlns="http://www.w3.org/2000/svg" xmlns:xlink="http://www.w3.org/1999/xlink" x="0px" y="0px"
	 viewBox="0 0 800 800" style="enable-background:new 0 0 800 800;" xml:space="preserve">
<style type="text/css">
	.st0{fill:#FFFFFF;}
</style>
<g>
	<path d="M10.5,398.7C9.3,180.5,186.6,8.3,399.1,8C616,7.8,797.3,188.6,788.4,415.3C780.1,626.2,607.7,793.1,397,790.2
		C170,787,8.3,602.9,10.5,398.7z M498.4,701.2c-15.2-10.7-28.7-20.4-42.5-29.6c-5.9-3.9-6.9-7.6-4.5-14.4
		c14.1-38.8,27.9-77.7,41.3-116.8c2.5-7.2,6.2-9.3,13.4-9.3c39.6,0.3,79.3,0.3,118.9-0.1c8.1-0.1,11.4,3,13.7,10.4
		c4.8,15.8,10.4,31.4,16.4,49.1c40-59.6,61.1-122.6,63.1-195.2c-16.1,11.9-29.6,21.6-42.8,31.8c-5.2,4-8.9,4.1-14.2,0.1
		c-32.4-24.7-64.9-49.2-97.6-73.4c-6.2-4.6-7.8-8.6-5.4-16.3c11.8-36.9,23.4-73.9,33.9-111.3c3.2-11.4,8.5-14.8,19.7-14
		c15,1,30.1,0.2,48.1,0.2c-44.2-58.4-98.3-97-166.8-120.5c6,18,10.7,33.6,16.5,48.7c3.1,8.1,0.8,12.4-5.7,17
		c-33,23.2-65.8,46.7-98.4,70.5c-6.2,4.5-10.2,4-16.1-0.3c-31.7-23.1-63.5-46.2-95.8-68.4c-9.2-6.4-10.9-12.1-6.6-22.2
		c5.7-13.3,9.5-27.4,14.8-43.2c-67.4,23.6-121.3,60.9-164.2,118.4c18.4,0,33.6,0.3,48.9-0.1c7.3-0.2,11.1,2.1,13.2,9.4
		c11.5,38.9,23.2,77.7,35.5,116.3c2.3,7.3,0.8,11.1-5,15.4c-32.2,24.3-64.2,48.9-96.1,73.6c-5.1,4-8.9,4.3-14.3,0.3
		c-13.3-9.8-27.1-19-41.3-28.9c-6.1,48,23.7,153.1,60.4,190.1c5.4-16.1,11.1-31.7,15.8-47.6c2.3-7.6,6.1-10.1,13.9-10
		c40,0.3,80,0.3,120,0c7.7-0.1,11.5,2.3,14,9.9c12.7,38.6,25.7,77,39.1,115.3c2.7,7.6,1.2,11.8-5.4,16.1
		c-13.6,8.8-26.6,18.4-41.8,29C363.4,723.7,429.6,724.9,498.4,701.2z"/>
	<path class="st0" d="M498.4,701.2c-68.8,23.7-135.1,22.5-203.9,0.1c15.1-10.6,28.2-20.2,41.8-29c6.6-4.3,8.1-8.4,5.4-16.1
		c-13.4-38.3-26.5-76.7-39.1-115.3c-2.5-7.6-6.3-9.9-14-9.9c-40,0.3-80,0.3-120,0c-7.8-0.1-11.7,2.4-13.9,10
		c-4.7,15.9-10.4,31.5-15.8,47.6c-36.7-37-66.5-142.1-60.4-190.1c14.2,9.9,28,19,41.3,28.9c5.4,4,9.2,3.7,14.3-0.3
		c31.9-24.7,63.9-49.3,96.1-73.6c5.8-4.4,7.4-8.1,5-15.4c-12.2-38.6-24-77.5-35.5-116.3c-2.2-7.3-5.9-9.6-13.2-9.4
		c-15.2,0.5-30.5,0.1-48.9,0.1c42.9-57.6,96.8-94.9,164.2-118.4c-5.3,15.8-9.1,29.9-14.8,43.2c-4.3,10.1-2.6,15.9,6.6,22.2
		c32.3,22.3,64.1,45.3,95.8,68.4c5.9,4.3,10,4.8,16.1,0.3c32.6-23.8,65.4-47.2,98.4-70.5c6.6-4.6,8.9-8.9,5.7-17
		c-5.8-15.1-10.5-30.7-16.5-48.7c68.5,23.4,122.6,62.1,166.8,120.5c-18,0-33.1,0.7-48.1-0.2c-11.2-0.7-16.5,2.6-19.7,14
		c-10.5,37.3-22.1,74.3-33.9,111.3c-2.5,7.7-0.9,11.7,5.4,16.3c32.8,24.2,65.3,48.7,97.6,73.4c5.3,4.1,9.1,4,14.2-0.1
		c13.1-10.2,26.7-19.9,42.8-31.8c-2,72.6-23.1,135.6-63.1,195.2c-6-17.7-11.7-33.3-16.4-49.1c-2.2-7.4-5.6-10.4-13.7-10.4
		c-39.6,0.4-79.3,0.3-118.9,0.1c-7.2,0-10.9,2-13.4,9.3c-13.4,39.1-27.2,78-41.3,116.8c-2.4,6.7-1.4,10.5,4.5,14.4
		C469.8,680.8,483.2,690.6,498.4,701.2z M396.2,488.4c20.4,0,40.7-0.2,61.1,0.1c6.9,0.1,10.7-2.4,12.9-8.9
		c13.2-38.7,26.8-77.3,39.8-116.1c1-3.1-1-9.3-3.6-11.3c-34.2-24.5-68.8-48.7-103.5-72.5c-2.4-1.7-7.9-1.7-10.3-0.1
		c-34.4,23.6-68.4,47.7-102.7,71.4c-5.8,4-6.8,7.7-4.5,14.5c12.9,37.6,25.4,75.3,37.6,113.1c2.5,7.6,6.6,10,14.4,9.8
		C356.9,488.1,376.6,488.5,396.2,488.4z"/>
	<path d="M396.2,488.4c-19.6,0-39.3-0.3-58.9,0.2c-7.7,0.2-11.9-2.2-14.4-9.8c-12.2-37.8-24.7-75.6-37.6-113.1
		c-2.3-6.7-1.3-10.4,4.5-14.5c34.3-23.7,68.3-47.8,102.7-71.4c2.4-1.6,7.9-1.6,10.3,0.1c34.7,23.8,69.3,48,103.5,72.5
		c2.7,1.9,4.7,8.1,3.6,11.3c-12.9,38.8-26.5,77.4-39.8,116.1c-2.2,6.5-5.9,9-12.9,8.9C436.9,488.2,416.6,488.4,396.2,488.4z"/>
</g>
</svg>
