<svg xmlns="http://www.w3.org/2000/svg" width="600" height="600" xmlns:v="https://vecta.io/nano"><path d="M250 0c-68.651 0-125 56.357-125 124.975 0 37.02 16.422 70.454 42.309 93.412C69.578 254.57 0 352.887 0 466.676.001 485.08 14.929 499.998 33.344 500h160.395c6.556-24.219 17.055-46.75 30.893-66.646H69.326C84.073 339.74 159.883 270.18 250 270.18c12.489 0 24.689 1.381 36.504 3.932 4.057-40.718 32.926-74.485 71.123-85.912C368.647 169.613 375 147.988 375 124.975 375 56.357 318.651 0 250 0zm0 66.646c32.59 0 58.312 25.708 58.312 58.328S282.59 183.307 250 183.307s-58.314-25.712-58.314-58.332S217.41 66.646 250 66.646zM400 200c-54.921 0-100 45.086-100 99.98 0 29.616 13.137 56.362 33.846 74.729C255.662 403.656 200 482.31 200 573.341c.001 14.723 11.943 26.657 26.674 26.659H400h173.324c14.732-.001 26.674-11.936 26.676-26.659 0-91.031-55.661-169.685-133.845-198.632C486.864 356.343 500 329.597 500 299.981c0-54.894-45.079-99.98-100-99.98zm0 53.318c26.072 0 46.65 20.567 46.65 46.663s-20.578 46.665-46.65 46.665-46.651-20.57-46.651-46.665 20.579-46.663 46.651-46.663zm0 162.826c72.094 0 132.742 55.648 144.539 130.539H400 255.461c11.797-74.892 72.445-130.54 144.539-130.54z" paint-order="stroke fill markers"/></svg>